<mxfile host="app.diagrams.net" modified="2023-03-05T23:20:09.545Z" agent="5.0 (Windows NT 10.0; Win64; x64) AppleWebKit/537.36 (KHTML, like Gecko) Chrome/110.0.0.0 Safari/537.36" etag="lAnUBDpiyZIjy_C--8OV" version="20.8.18" type="github">
  <diagram id="IfFp8PQ106TDA0SB05V2" name="Page-1">
    <mxGraphModel dx="3434" dy="1344" grid="1" gridSize="10" guides="1" tooltips="1" connect="1" arrows="1" fold="1" page="1" pageScale="1" pageWidth="827" pageHeight="1169" math="0" shadow="0">
      <root>
        <mxCell id="0" />
        <mxCell id="1" parent="0" />
        <mxCell id="oCbvhflPHs6jfbzN3O0E-13" style="edgeStyle=orthogonalEdgeStyle;rounded=0;orthogonalLoop=1;jettySize=auto;html=1;fontSize=20;entryX=1.017;entryY=0.617;entryDx=0;entryDy=0;entryPerimeter=0;" parent="1" source="oCbvhflPHs6jfbzN3O0E-1" edge="1">
          <mxGeometry relative="1" as="geometry">
            <mxPoint x="152.03999999999996" y="597.02" as="targetPoint" />
            <Array as="points">
              <mxPoint x="318" y="590" />
              <mxPoint x="152" y="590" />
            </Array>
          </mxGeometry>
        </mxCell>
        <mxCell id="oCbvhflPHs6jfbzN3O0E-27" style="edgeStyle=orthogonalEdgeStyle;rounded=0;orthogonalLoop=1;jettySize=auto;html=1;entryX=1;entryY=0.5;entryDx=0;entryDy=0;fontSize=20;" parent="1" source="oCbvhflPHs6jfbzN3O0E-1" target="oCbvhflPHs6jfbzN3O0E-23" edge="1">
          <mxGeometry relative="1" as="geometry">
            <Array as="points">
              <mxPoint x="318" y="690" />
            </Array>
          </mxGeometry>
        </mxCell>
        <mxCell id="oCbvhflPHs6jfbzN3O0E-28" style="edgeStyle=orthogonalEdgeStyle;rounded=0;orthogonalLoop=1;jettySize=auto;html=1;entryX=0.992;entryY=0.617;entryDx=0;entryDy=0;entryPerimeter=0;fontSize=20;" parent="1" source="oCbvhflPHs6jfbzN3O0E-1" target="oCbvhflPHs6jfbzN3O0E-24" edge="1">
          <mxGeometry relative="1" as="geometry">
            <Array as="points">
              <mxPoint x="318" y="797" />
            </Array>
          </mxGeometry>
        </mxCell>
        <mxCell id="oCbvhflPHs6jfbzN3O0E-1" value="" style="ellipse;whiteSpace=wrap;html=1;aspect=fixed;fillColor=none;" parent="1" vertex="1">
          <mxGeometry x="170" y="205" width="295" height="295" as="geometry" />
        </mxCell>
        <mxCell id="oCbvhflPHs6jfbzN3O0E-14" style="edgeStyle=orthogonalEdgeStyle;rounded=0;orthogonalLoop=1;jettySize=auto;html=1;fontSize=20;entryX=0.5;entryY=0;entryDx=0;entryDy=0;" parent="1" source="oCbvhflPHs6jfbzN3O0E-2" target="oCbvhflPHs6jfbzN3O0E-20" edge="1">
          <mxGeometry relative="1" as="geometry">
            <mxPoint x="530" y="820" as="targetPoint" />
            <Array as="points">
              <mxPoint x="640" y="540" />
              <mxPoint x="700" y="540" />
            </Array>
          </mxGeometry>
        </mxCell>
        <mxCell id="oCbvhflPHs6jfbzN3O0E-2" value="" style="ellipse;whiteSpace=wrap;html=1;aspect=fixed;fillColor=none;" parent="1" vertex="1">
          <mxGeometry x="380" y="200" width="300" height="300" as="geometry" />
        </mxCell>
        <mxCell id="oCbvhflPHs6jfbzN3O0E-3" value="" style="ellipse;whiteSpace=wrap;html=1;fillColor=none;" parent="1" vertex="1">
          <mxGeometry x="109" y="50" width="610" height="500" as="geometry" />
        </mxCell>
        <mxCell id="oCbvhflPHs6jfbzN3O0E-4" value="&lt;font style=&quot;font-size: 20px;&quot;&gt;Policy making&lt;/font&gt;" style="text;html=1;strokeColor=none;fillColor=none;align=center;verticalAlign=middle;whiteSpace=wrap;rounded=0;" parent="1" vertex="1">
          <mxGeometry x="350" y="90" width="140" height="70" as="geometry" />
        </mxCell>
        <mxCell id="oCbvhflPHs6jfbzN3O0E-5" value="Vehicles reduction" style="text;html=1;strokeColor=none;fillColor=none;align=center;verticalAlign=middle;whiteSpace=wrap;rounded=0;fontSize=20;" parent="1" vertex="1">
          <mxGeometry x="260" y="337.5" width="60" height="30" as="geometry" />
        </mxCell>
        <mxCell id="oCbvhflPHs6jfbzN3O0E-6" value="Alternative energy" style="text;html=1;strokeColor=none;fillColor=none;align=center;verticalAlign=middle;whiteSpace=wrap;rounded=0;fontSize=20;" parent="1" vertex="1">
          <mxGeometry x="540" y="335" width="60" height="30" as="geometry" />
        </mxCell>
        <mxCell id="oCbvhflPHs6jfbzN3O0E-12" style="edgeStyle=orthogonalEdgeStyle;rounded=0;orthogonalLoop=1;jettySize=auto;html=1;exitX=0.5;exitY=1;exitDx=0;exitDy=0;fontSize=20;" parent="1" source="oCbvhflPHs6jfbzN3O0E-11" edge="1">
          <mxGeometry relative="1" as="geometry">
            <mxPoint x="425" y="680" as="targetPoint" />
          </mxGeometry>
        </mxCell>
        <mxCell id="oCbvhflPHs6jfbzN3O0E-11" value="" style="ellipse;whiteSpace=wrap;html=1;fontSize=20;" parent="1" vertex="1">
          <mxGeometry x="420" y="365" width="10" height="5" as="geometry" />
        </mxCell>
        <mxCell id="oCbvhflPHs6jfbzN3O0E-16" value="" style="endArrow=classic;html=1;rounded=0;fontSize=20;exitX=1;exitY=0.5;exitDx=0;exitDy=0;" parent="1" source="oCbvhflPHs6jfbzN3O0E-2" edge="1">
          <mxGeometry width="50" height="50" relative="1" as="geometry">
            <mxPoint x="740" y="370" as="sourcePoint" />
            <mxPoint x="800" y="350" as="targetPoint" />
          </mxGeometry>
        </mxCell>
        <mxCell id="oCbvhflPHs6jfbzN3O0E-19" value="bio fuels" style="rounded=0;whiteSpace=wrap;html=1;fontSize=20;" parent="1" vertex="1">
          <mxGeometry x="800" y="320" width="120" height="60" as="geometry" />
        </mxCell>
        <mxCell id="oCbvhflPHs6jfbzN3O0E-34" style="edgeStyle=orthogonalEdgeStyle;rounded=0;orthogonalLoop=1;jettySize=auto;html=1;exitX=0.5;exitY=1;exitDx=0;exitDy=0;entryX=0.5;entryY=0;entryDx=0;entryDy=0;fontSize=20;" parent="1" source="oCbvhflPHs6jfbzN3O0E-20" target="oCbvhflPHs6jfbzN3O0E-30" edge="1">
          <mxGeometry relative="1" as="geometry" />
        </mxCell>
        <mxCell id="oCbvhflPHs6jfbzN3O0E-20" value="electrification" style="rounded=0;whiteSpace=wrap;html=1;fontSize=20;" parent="1" vertex="1">
          <mxGeometry x="640" y="640" width="120" height="60" as="geometry" />
        </mxCell>
        <mxCell id="oCbvhflPHs6jfbzN3O0E-21" value="AEV" style="rounded=0;whiteSpace=wrap;html=1;fontSize=20;" parent="1" vertex="1">
          <mxGeometry x="365" y="680" width="120" height="60" as="geometry" />
        </mxCell>
        <mxCell id="oCbvhflPHs6jfbzN3O0E-23" value="Rail hailing" style="rounded=0;whiteSpace=wrap;html=1;fontSize=20;" parent="1" vertex="1">
          <mxGeometry x="30" y="660" width="120" height="60" as="geometry" />
        </mxCell>
        <mxCell id="oCbvhflPHs6jfbzN3O0E-24" value="Active transport" style="rounded=0;whiteSpace=wrap;html=1;fontSize=20;" parent="1" vertex="1">
          <mxGeometry x="30" y="760" width="120" height="60" as="geometry" />
        </mxCell>
        <mxCell id="oCbvhflPHs6jfbzN3O0E-25" value="PT" style="rounded=0;whiteSpace=wrap;html=1;fontSize=20;" parent="1" vertex="1">
          <mxGeometry x="30" y="560" width="120" height="60" as="geometry" />
        </mxCell>
        <mxCell id="oCbvhflPHs6jfbzN3O0E-85" style="edgeStyle=orthogonalEdgeStyle;rounded=0;orthogonalLoop=1;jettySize=auto;html=1;entryX=0.5;entryY=0;entryDx=0;entryDy=0;fontSize=20;" parent="1" source="oCbvhflPHs6jfbzN3O0E-30" target="oCbvhflPHs6jfbzN3O0E-51" edge="1">
          <mxGeometry relative="1" as="geometry" />
        </mxCell>
        <mxCell id="oCbvhflPHs6jfbzN3O0E-30" value="3 layers" style="rhombus;whiteSpace=wrap;html=1;fontSize=20;" parent="1" vertex="1">
          <mxGeometry x="655" y="720" width="90" height="90" as="geometry" />
        </mxCell>
        <mxCell id="oCbvhflPHs6jfbzN3O0E-38" value="Energy hub" style="ellipse;whiteSpace=wrap;html=1;aspect=fixed;fontSize=20;" parent="1" vertex="1">
          <mxGeometry x="740" y="1125" width="80" height="80" as="geometry" />
        </mxCell>
        <mxCell id="oCbvhflPHs6jfbzN3O0E-40" value="V2G" style="ellipse;whiteSpace=wrap;html=1;aspect=fixed;fontSize=20;" parent="1" vertex="1">
          <mxGeometry x="150" y="960" width="80" height="80" as="geometry" />
        </mxCell>
        <mxCell id="oCbvhflPHs6jfbzN3O0E-42" value="" style="ellipse;whiteSpace=wrap;html=1;aspect=fixed;fontSize=20;fillColor=none;" parent="1" vertex="1">
          <mxGeometry x="320" y="900" width="220" height="220" as="geometry" />
        </mxCell>
        <mxCell id="oCbvhflPHs6jfbzN3O0E-43" value="" style="ellipse;whiteSpace=wrap;html=1;aspect=fixed;fontSize=20;fillColor=none;" parent="1" vertex="1">
          <mxGeometry x="470" y="890" width="220" height="220" as="geometry" />
        </mxCell>
        <mxCell id="oCbvhflPHs6jfbzN3O0E-84" style="edgeStyle=orthogonalEdgeStyle;rounded=0;orthogonalLoop=1;jettySize=auto;html=1;exitX=0.5;exitY=1;exitDx=0;exitDy=0;entryX=0;entryY=0.5;entryDx=0;entryDy=0;fontSize=20;" parent="1" source="oCbvhflPHs6jfbzN3O0E-44" target="oCbvhflPHs6jfbzN3O0E-58" edge="1">
          <mxGeometry relative="1" as="geometry" />
        </mxCell>
        <mxCell id="oCbvhflPHs6jfbzN3O0E-44" value="" style="ellipse;whiteSpace=wrap;html=1;aspect=fixed;fontSize=20;fillColor=none;" parent="1" vertex="1">
          <mxGeometry x="405" y="1010" width="210" height="210" as="geometry" />
        </mxCell>
        <mxCell id="oCbvhflPHs6jfbzN3O0E-45" value="Transport" style="text;html=1;strokeColor=none;fillColor=none;align=center;verticalAlign=middle;whiteSpace=wrap;rounded=0;fontSize=20;" parent="1" vertex="1">
          <mxGeometry x="380" y="940" width="60" height="30" as="geometry" />
        </mxCell>
        <mxCell id="oCbvhflPHs6jfbzN3O0E-46" value="Grid" style="text;html=1;strokeColor=none;fillColor=none;align=center;verticalAlign=middle;whiteSpace=wrap;rounded=0;fontSize=20;" parent="1" vertex="1">
          <mxGeometry x="590" y="950" width="60" height="30" as="geometry" />
        </mxCell>
        <mxCell id="oCbvhflPHs6jfbzN3O0E-47" value="Infrastructure" style="text;html=1;strokeColor=none;fillColor=none;align=center;verticalAlign=middle;whiteSpace=wrap;rounded=0;fontSize=20;" parent="1" vertex="1">
          <mxGeometry x="480" y="1150" width="60" height="30" as="geometry" />
        </mxCell>
        <mxCell id="oCbvhflPHs6jfbzN3O0E-65" style="edgeStyle=orthogonalEdgeStyle;rounded=0;orthogonalLoop=1;jettySize=auto;html=1;fontSize=20;entryX=1;entryY=0.5;entryDx=0;entryDy=0;" parent="1" source="oCbvhflPHs6jfbzN3O0E-53" target="oCbvhflPHs6jfbzN3O0E-67" edge="1">
          <mxGeometry relative="1" as="geometry">
            <mxPoint x="140" y="1129" as="targetPoint" />
          </mxGeometry>
        </mxCell>
        <mxCell id="oCbvhflPHs6jfbzN3O0E-71" style="edgeStyle=orthogonalEdgeStyle;rounded=0;orthogonalLoop=1;jettySize=auto;html=1;entryX=1;entryY=0.413;entryDx=0;entryDy=0;entryPerimeter=0;fontSize=20;" parent="1" source="oCbvhflPHs6jfbzN3O0E-53" target="oCbvhflPHs6jfbzN3O0E-68" edge="1">
          <mxGeometry relative="1" as="geometry" />
        </mxCell>
        <mxCell id="oCbvhflPHs6jfbzN3O0E-72" style="edgeStyle=orthogonalEdgeStyle;rounded=0;orthogonalLoop=1;jettySize=auto;html=1;entryX=1;entryY=0.5;entryDx=0;entryDy=0;fontSize=20;" parent="1" source="oCbvhflPHs6jfbzN3O0E-53" target="oCbvhflPHs6jfbzN3O0E-70" edge="1">
          <mxGeometry relative="1" as="geometry" />
        </mxCell>
        <mxCell id="oCbvhflPHs6jfbzN3O0E-53" value="Energy demand" style="ellipse;whiteSpace=wrap;html=1;aspect=fixed;fontSize=20;" parent="1" vertex="1">
          <mxGeometry x="220" y="1089" width="80" height="80" as="geometry" />
        </mxCell>
        <mxCell id="oCbvhflPHs6jfbzN3O0E-56" value="Predict position" style="ellipse;whiteSpace=wrap;html=1;aspect=fixed;fontSize=20;" parent="1" vertex="1">
          <mxGeometry x="340" y="1300" width="80" height="80" as="geometry" />
        </mxCell>
        <mxCell id="oCbvhflPHs6jfbzN3O0E-58" value="DWTP" style="ellipse;whiteSpace=wrap;html=1;aspect=fixed;fontSize=20;" parent="1" vertex="1">
          <mxGeometry x="550" y="1320" width="80" height="80" as="geometry" />
        </mxCell>
        <mxCell id="oCbvhflPHs6jfbzN3O0E-83" style="edgeStyle=orthogonalEdgeStyle;rounded=0;orthogonalLoop=1;jettySize=auto;html=1;entryX=0.5;entryY=0;entryDx=0;entryDy=0;fontSize=20;" parent="1" source="oCbvhflPHs6jfbzN3O0E-59" target="oCbvhflPHs6jfbzN3O0E-56" edge="1">
          <mxGeometry relative="1" as="geometry" />
        </mxCell>
        <mxCell id="oCbvhflPHs6jfbzN3O0E-59" value="" style="ellipse;whiteSpace=wrap;html=1;fontSize=20;" parent="1" vertex="1">
          <mxGeometry x="445" y="1068" width="20" height="21" as="geometry" />
        </mxCell>
        <mxCell id="oCbvhflPHs6jfbzN3O0E-62" style="edgeStyle=orthogonalEdgeStyle;rounded=0;orthogonalLoop=1;jettySize=auto;html=1;entryX=0.5;entryY=0;entryDx=0;entryDy=0;fontSize=20;startArrow=none;" parent="1" source="oCbvhflPHs6jfbzN3O0E-61" target="oCbvhflPHs6jfbzN3O0E-40" edge="1">
          <mxGeometry relative="1" as="geometry">
            <Array as="points">
              <mxPoint x="500" y="880" />
              <mxPoint x="190" y="880" />
            </Array>
          </mxGeometry>
        </mxCell>
        <mxCell id="oCbvhflPHs6jfbzN3O0E-63" style="edgeStyle=orthogonalEdgeStyle;rounded=0;orthogonalLoop=1;jettySize=auto;html=1;fontSize=20;" parent="1" source="oCbvhflPHs6jfbzN3O0E-61" target="oCbvhflPHs6jfbzN3O0E-53" edge="1">
          <mxGeometry relative="1" as="geometry" />
        </mxCell>
        <mxCell id="oCbvhflPHs6jfbzN3O0E-61" value="" style="ellipse;whiteSpace=wrap;html=1;aspect=fixed;fontSize=20;" parent="1" vertex="1">
          <mxGeometry x="490" y="970" width="20" height="20" as="geometry" />
        </mxCell>
        <mxCell id="oCbvhflPHs6jfbzN3O0E-74" style="edgeStyle=orthogonalEdgeStyle;rounded=0;orthogonalLoop=1;jettySize=auto;html=1;entryX=0;entryY=0.5;entryDx=0;entryDy=0;fontSize=20;" parent="1" source="oCbvhflPHs6jfbzN3O0E-64" target="oCbvhflPHs6jfbzN3O0E-38" edge="1">
          <mxGeometry relative="1" as="geometry" />
        </mxCell>
        <mxCell id="oCbvhflPHs6jfbzN3O0E-64" value="" style="ellipse;whiteSpace=wrap;html=1;aspect=fixed;fontSize=20;" parent="1" vertex="1">
          <mxGeometry x="550" y="1060" width="20" height="20" as="geometry" />
        </mxCell>
        <mxCell id="oCbvhflPHs6jfbzN3O0E-77" style="edgeStyle=orthogonalEdgeStyle;rounded=0;orthogonalLoop=1;jettySize=auto;html=1;entryX=0.5;entryY=0;entryDx=0;entryDy=0;fontSize=20;" parent="1" source="oCbvhflPHs6jfbzN3O0E-67" target="oCbvhflPHs6jfbzN3O0E-76" edge="1">
          <mxGeometry relative="1" as="geometry" />
        </mxCell>
        <mxCell id="oCbvhflPHs6jfbzN3O0E-80" style="edgeStyle=orthogonalEdgeStyle;rounded=0;orthogonalLoop=1;jettySize=auto;html=1;entryX=0.5;entryY=1;entryDx=0;entryDy=0;fontSize=20;" parent="1" source="oCbvhflPHs6jfbzN3O0E-67" target="oCbvhflPHs6jfbzN3O0E-79" edge="1">
          <mxGeometry relative="1" as="geometry" />
        </mxCell>
        <mxCell id="oCbvhflPHs6jfbzN3O0E-67" value="ABM" style="ellipse;whiteSpace=wrap;html=1;aspect=fixed;fontSize=20;" parent="1" vertex="1">
          <mxGeometry x="30" y="1089" width="80" height="80" as="geometry" />
        </mxCell>
        <mxCell id="oCbvhflPHs6jfbzN3O0E-68" value="Chain trip" style="ellipse;whiteSpace=wrap;html=1;aspect=fixed;fontSize=20;" parent="1" vertex="1">
          <mxGeometry x="50" y="1210" width="80" height="80" as="geometry" />
        </mxCell>
        <mxCell id="oCbvhflPHs6jfbzN3O0E-70" value="Graph theory" style="ellipse;whiteSpace=wrap;html=1;aspect=fixed;fontSize=20;" parent="1" vertex="1">
          <mxGeometry x="120" y="1320" width="80" height="80" as="geometry" />
        </mxCell>
        <mxCell id="oCbvhflPHs6jfbzN3O0E-76" value="PMPSS" style="ellipse;whiteSpace=wrap;html=1;aspect=fixed;fontSize=20;" parent="1" vertex="1">
          <mxGeometry x="-120" y="1169" width="80" height="80" as="geometry" />
        </mxCell>
        <mxCell id="oCbvhflPHs6jfbzN3O0E-79" value="BEAM" style="ellipse;whiteSpace=wrap;html=1;aspect=fixed;fontSize=20;" parent="1" vertex="1">
          <mxGeometry x="-120" y="1000" width="80" height="80" as="geometry" />
        </mxCell>
        <mxCell id="oCbvhflPHs6jfbzN3O0E-51" value="" style="rounded=0;whiteSpace=wrap;html=1;fontSize=20;fillColor=none;dashed=1;strokeColor=#FF6666;" parent="1" vertex="1">
          <mxGeometry x="313.75" y="855" width="392.5" height="385" as="geometry" />
        </mxCell>
      </root>
    </mxGraphModel>
  </diagram>
</mxfile>
